<svg width="26" height="26" viewBox="0 0 26 26" fill="none" xmlns="http://www.w3.org/2000/svg">
<path d="M12.9993 2.16406C18.9824 2.16406 23.8327 7.01431 23.8327 12.9974C23.8327 18.9804 18.9824 23.8307 12.9993 23.8307C7.01626 23.8307 2.16602 18.9804 2.16602 12.9974C2.16602 7.01431 7.01626 2.16406 12.9993 2.16406ZM12.9993 3.78906C7.91373 3.78906 3.79102 7.91177 3.79102 12.9974C3.79102 18.083 7.91373 22.2057 12.9993 22.2057C18.0849 22.2057 22.2077 18.083 22.2077 12.9974C22.2077 7.91177 18.0849 3.78906 12.9993 3.78906ZM8.09149 10.7979C8.40879 10.4806 8.92324 10.4806 9.24054 10.7979L12.9993 14.5566L16.7582 10.7979C17.0755 10.4806 17.5899 10.4806 17.9072 10.7979C18.2245 11.1152 18.2245 11.6296 17.9072 11.9469L13.5738 16.2802C13.2565 16.5975 12.7422 16.5975 12.4249 16.2802L8.09149 11.9469C7.77419 11.6296 7.77419 11.1152 8.09149 10.7979Z" fill="#005963"/>
</svg>
